<?xml version="1.0" encoding="UTF-8"?>
<svg width="120" height="40" viewBox="0 0 120 40" fill="none" xmlns="http://www.w3.org/2000/svg">
  <path d="M20 8C13.3726 8 8 13.3726 8 20C8 26.6274 13.3726 32 20 32C26.6274 32 32 26.6274 32 20C32 13.3726 26.6274 8 20 8ZM20 28C15.5817 28 12 24.4183 12 20C12 15.5817 15.5817 12 20 12C24.4183 12 28 15.5817 28 20C28 24.4183 24.4183 28 20 28Z" fill="#B82E1A"/>
  <path d="M40 16H48V24H40V16Z" fill="#B82E1A"/>
  <path d="M52 16H60V24H52V16Z" fill="#B82E1A"/>
  <path d="M64 16H72V24H64V16Z" fill="#B82E1A"/>
  <path d="M76 16H84V24H76V16Z" fill="#B82E1A"/>
  <path d="M88 16H96V24H88V16Z" fill="#B82E1A"/>
  <path d="M100 16H108V24H100V16Z" fill="#B82E1A"/>
</svg> 